<?xml version="1.0" encoding="iso-8859-1"?>
<!-- Generator: Adobe Illustrator 19.0.0, SVG Export Plug-In . SVG Version: 6.00 Build 0)  -->
<svg version="1.1" id="Layer_1" xmlns="http://www.w3.org/2000/svg" xmlns:xlink="http://www.w3.org/1999/xlink" x="0px" y="0px"
	 width="24" height="24" viewBox="0 0 490.717 490.717" style="enable-background:new 0 0 490.717 490.717;" xml:space="preserve">
<g>
	<g>
		<g>
			<path fill="#858585" d="M181.352,170.46c-4.309,0-8.213,2.603-9.856,6.592c-1.685,3.989-0.747,8.576,2.304,11.627l27.968,27.968l-9.536,47.723
				c-0.853,4.331,1.045,8.768,4.779,11.115c3.733,2.389,8.533,2.176,12.075-0.491l36.267-27.2l36.267,27.2
				c1.899,1.408,4.139,2.133,6.4,2.133c1.963,0,3.947-0.533,5.696-1.643c3.755-2.347,5.653-6.784,4.779-11.115l-9.536-47.723
				l27.968-27.968c3.051-3.051,3.968-7.637,2.304-11.627c-1.664-3.989-5.547-6.592-9.877-6.592h-36.053l-18.389-36.779
				c-3.627-7.232-15.467-7.232-19.093,0l-18.411,36.779H181.352z M233.534,185.905l11.819-23.573l11.797,23.573
				c1.813,3.605,5.483,5.888,9.536,5.888h16.917l-13.781,13.781c-2.517,2.539-3.627,6.144-2.923,9.643l5.184,25.963l-20.331-15.253
				c-1.899-1.429-4.16-2.133-6.4-2.133s-4.501,0.704-6.4,2.133l-20.331,15.253l5.184-25.963c0.683-3.499-0.405-7.125-2.923-9.643
				l-13.781-13.781h16.917C228.03,191.793,231.742,189.51,233.534,185.905z"/>
			<path fill="#858585" d="M287.08,88.646l-9.515,47.723c-0.853,4.331,1.045,8.768,4.779,11.115c3.733,2.368,8.555,2.176,12.075-0.491l36.267-27.2
				l36.267,27.2c1.899,1.408,4.139,2.133,6.4,2.133c1.963,0,3.947-0.533,5.696-1.643c3.755-2.347,5.653-6.784,4.779-11.115
				l-9.536-47.723l27.968-27.968c3.051-3.051,3.968-7.637,2.304-11.627c-1.664-3.989-5.547-6.592-9.877-6.592h-36.053L340.243,5.681
				c-3.627-7.232-15.467-7.232-19.093,0L302.739,42.46h-36.053c-4.309,0-8.213,2.603-9.856,6.592
				c-1.664,3.989-0.747,8.576,2.304,11.627L287.08,88.646z M309.352,63.793c4.032,0,7.723-2.283,9.536-5.888l11.797-23.573
				l11.797,23.573c1.813,3.605,5.483,5.888,9.536,5.888h16.917l-13.781,13.781c-2.517,2.539-3.627,6.144-2.923,9.643l5.184,25.963
				l-20.331-15.253c-1.899-1.429-4.16-2.133-6.4-2.133s-4.501,0.704-6.4,2.133l-20.331,15.253l5.184-25.963
				c0.683-3.499-0.405-7.125-2.923-9.643l-13.781-13.781H309.352z"/>
			<path fill="#858585" d="M352.019,170.46c-4.309,0-8.213,2.603-9.856,6.592c-1.664,3.989-0.747,8.576,2.304,11.627l27.968,27.968l-9.536,47.723
				c-0.853,4.331,1.045,8.768,4.779,11.115c3.733,2.389,8.555,2.176,12.075-0.491l36.267-27.2l36.267,27.2
				c1.899,1.408,4.139,2.133,6.4,2.133c1.963,0,3.947-0.533,5.696-1.643c3.755-2.347,5.653-6.784,4.779-11.115l-9.536-47.723
				l27.968-27.968c3.051-3.051,3.968-7.637,2.304-11.627c-1.664-3.989-5.547-6.592-9.877-6.592h-36.053l-18.389-36.779
				c-3.627-7.232-15.467-7.232-19.093,0l-18.411,36.779H352.019z M404.2,185.905l11.819-23.573l11.797,23.573
				c1.813,3.605,5.483,5.888,9.536,5.888h16.917l-13.781,13.781c-2.517,2.539-3.627,6.144-2.923,9.643l5.184,25.963l-20.331-15.253
				c-1.899-1.429-4.16-2.133-6.4-2.133s-4.501,0.704-6.4,2.133l-20.331,15.253l5.184-25.963c0.683-3.499-0.405-7.125-2.923-9.643
				l-13.781-13.781h16.917C398.696,191.793,402.408,189.51,404.2,185.905z"/>
			<path fill="#858585" d="M394.686,362.46c5.888,0,10.667-4.779,10.667-10.667c0-5.888-4.779-10.667-10.667-10.667h-42.667
				c-5.888,0-10.667,4.779-10.667,10.667v85.333c0,5.888,4.779,10.667,10.667,10.667h42.667c5.888,0,10.667-4.779,10.667-10.667
				c0-5.888-4.779-10.667-10.667-10.667h-32v-21.333h10.667c5.888,0,10.667-4.779,10.667-10.667s-4.779-10.667-10.667-10.667
				h-10.667V362.46H394.686z"/>
			<path fill="#858585" d="M320.019,341.126h-64c-5.888,0-10.667,4.779-10.667,10.667c0,5.888,4.779,10.667,10.667,10.667h21.333v74.667
				c0,5.888,4.779,10.667,10.667,10.667s10.667-4.779,10.667-10.667V362.46h21.333c5.888,0,10.667-4.779,10.667-10.667
				C330.686,345.905,325.907,341.126,320.019,341.126z"/>
			<path fill="#858585" d="M437.352,298.46h-384c-29.397,0-53.333,23.936-53.333,53.333v85.333c0,29.397,23.936,53.333,53.333,53.333h384
				c29.397,0,53.333-23.936,53.333-53.333v-85.333C490.686,322.396,466.75,298.46,437.352,298.46z M469.352,437.126
				c0,17.643-14.357,32-32,32h-384c-17.643,0-32-14.357-32-32v-85.333c0-17.643,14.357-32,32-32h384c17.643,0,32,14.357,32,32
				V437.126z"/>
			<path fill="#858585" d="M153.086,341.809c-5.525-2.048-11.669,0.704-13.739,6.229l-21.995,58.709l-22.016-58.709
				c-2.069-5.504-8.192-8.256-13.739-6.229c-5.504,2.069-8.299,8.213-6.229,13.739l32,85.333c1.536,4.16,5.547,6.912,9.984,6.912
				s8.427-2.752,9.984-6.912l32-85.333C161.406,350.022,158.59,343.878,153.086,341.809z"/>
			<path fill="#858585" d="M31.08,216.646l-9.515,47.723c-0.853,4.331,1.045,8.768,4.779,11.115c3.733,2.389,8.533,2.176,12.075-0.491l36.267-27.2
				l36.267,27.2c1.899,1.408,4.139,2.133,6.4,2.133c1.963,0,3.947-0.533,5.696-1.643c3.755-2.347,5.653-6.784,4.779-11.115
				l-9.536-47.723l27.968-27.968c3.029-3.051,3.968-7.637,2.304-11.627s-5.547-6.592-9.877-6.592h-36.053l-18.389-36.779
				c-3.627-7.232-15.467-7.232-19.093,0L46.739,170.46H10.686c-4.309,0-8.213,2.603-9.856,6.592
				c-1.685,3.989-0.747,8.576,2.304,11.627L31.08,216.646z M53.352,191.793c4.032,0,7.723-2.283,9.536-5.888l11.797-23.573
				l11.797,23.573c1.813,3.605,5.483,5.888,9.536,5.888h16.917l-13.781,13.781c-2.517,2.539-3.627,6.144-2.923,9.643l5.184,25.963
				l-20.331-15.253c-1.899-1.429-4.16-2.133-6.4-2.133c-2.24,0-4.501,0.704-6.4,2.133L47.955,241.18l5.184-25.963
				c0.683-3.499-0.405-7.125-2.923-9.643l-13.803-13.781H53.352z"/>
			<path fill="#858585" d="M116.414,88.646l-9.515,47.723c-0.853,4.331,1.045,8.768,4.779,11.115c3.733,2.368,8.533,2.176,12.075-0.491l36.267-27.2
				l36.267,27.2c1.899,1.408,4.139,2.133,6.4,2.133c1.963,0,3.947-0.533,5.696-1.643c3.755-2.347,5.653-6.784,4.779-11.115
				l-9.536-47.723l27.968-27.968c3.051-3.051,3.968-7.637,2.304-11.627s-5.547-6.592-9.877-6.592h-36.053L169.576,5.681
				c-3.627-7.232-15.467-7.232-19.093,0L132.072,42.46H96.019c-4.309,0-8.213,2.603-9.856,6.592
				c-1.685,3.989-0.747,8.576,2.304,11.627L116.414,88.646z M138.686,63.793c4.032,0,7.723-2.283,9.536-5.888l11.797-23.573
				l11.797,23.573c1.813,3.605,5.483,5.888,9.536,5.888h16.917l-13.803,13.781c-2.496,2.539-3.605,6.144-2.901,9.643l5.184,25.963
				l-20.352-15.253c-1.899-1.429-4.16-2.133-6.4-2.133s-4.501,0.704-6.4,2.133l-20.331,15.253l5.205-25.963
				c0.661-3.499-0.427-7.125-2.944-9.643l-13.781-13.781H138.686z"/>
			<path fill="#858585" d="M202.686,341.126c-17.643,0-32,14.357-32,32v42.667c0,17.643,14.357,32,32,32c17.643,0,32-14.357,32-32v-42.667
				C234.686,355.484,220.307,341.126,202.686,341.126z M213.352,415.793c0,5.888-4.779,10.667-10.667,10.667
				s-10.667-4.779-10.667-10.667v-42.667c0-5.888,4.779-10.667,10.667-10.667s10.667,4.779,10.667,10.667V415.793z"/>
		</g>
	</g>
</g>
<g>
</g>
<g>
</g>
<g>
</g>
<g>
</g>
<g>
</g>
<g>
</g>
<g>
</g>
<g>
</g>
<g>
</g>
<g>
</g>
<g>
</g>
<g>
</g>
<g>
</g>
<g>
</g>
<g>
</g>
</svg>
